<?xml version="1.0" encoding="UTF-8"?>
<svg id="Layer_1" data-name="Layer 1" xmlns="http://www.w3.org/2000/svg" viewBox="0 0 560.77 125.8">
  <defs>
    <style>
      .cls-1 {
        fill: #f26455;
      }

      .cls-2 {
        fill: #fff;
        font-family: YouTubeSansDarkLight, 'YouTube Sans Dark';
        font-size: 110.51px;
      }
    </style>
  </defs>
  <path class="cls-1" d="M69.18.19C44.34.79,30.15,1.61,23.88,2.89,9.44,5.77,3.24,13,.79,29.72.04,34.77-.28,68.94.29,82.53c.6,13.95,1.57,20.28,3.95,25.91,3.67,8.58,9.89,12.81,22.06,15.02,7.97,1.46,26.33,2.31,49.82,2.35,14.41,0,57.54-.96,64.05-1.42,10.11-.75,18.93-2.56,23.84-4.88,8.08-3.84,12.13-13.24,13.52-31.42.46-5.94.46-42.67,0-49.53-.78-11.78-1.92-17.37-4.66-23.02-3.1-6.33-7.58-9.93-14.63-11.74-4.55-1.17-15.48-2.35-30.18-3.24C119.71,0,85.09-.17,69.18.19ZM115.98,34.2c0,.11-6.01,10.43-13.34,22.92-7.33,12.49-13.34,22.81-13.34,22.92s6.01.21,13.34.21h13.34v11.39h-54.09v-11.39h13.38c11,0,13.34-.07,13.2-.46-.11-.28-6.12-10.6-13.38-22.95s-13.2-22.53-13.2-22.63,12.17-.21,27.04-.21,27.04.11,27.04.21Z"/>
  <text class="cls-2" transform="translate(189.34 98.4)"><tspan x="0" y="0">MeTube</tspan></text>
</svg>